<svg id="Capa_1" enable-background="new 0 0 512 512" height="512" viewBox="0 0 512 512" width="512" xmlns="http://www.w3.org/2000/svg"><path id="XMLID_901_" d="m135.069 434.175c-5.727-80.616 8.284-163.029 43.412-239.492l-28.893-36.897c-54.166 84.842-79.24 181.224-76.845 276.39" fill="#ffcb7c"/><path id="XMLID_1108_" d="m10.132 490.403c13.052 10.36 31.522 10.361 44.575.001l.173-.138c13.071-10.374 31.572-10.357 44.625.041l.037.029c13.055 10.4 31.56 10.414 44.632.035l.171-.136c13.053-10.365 31.527-10.366 44.583-.004l.176.139c13.071 10.375 31.571 10.359 44.625-.038l.037-.03c13.052-10.396 31.55-10.413 44.621-.041l.183.145c13.052 10.357 31.52 10.357 44.572-.001l.179-.142c13.07-10.373 31.568-10.357 44.621.038l.004.003c13.071 10.41 31.6 10.409 44.67-.001 13.052-10.396 31.55-10.413 44.621-.041l.143.113c13.071 10.372 31.569 10.355 44.621-.041v-56.16h-492.001z" fill="#b0e7f8"/><g fill="#d8ec84"><path id="XMLID_1412_" d="m168 137.885-111.723 111.723c-11.292-30.841-4.568-66.788 20.184-91.539s60.698-31.476 91.539-20.184z"/><path id="XMLID_1411_" d="m168 137.885 111.723 111.723c11.292-30.841 4.568-66.788-20.184-91.539s-60.698-31.476-91.539-20.184z"/><path id="XMLID_1408_" d="m168 137.826h-158c13.823-29.792 43.996-50.456 79-50.456s65.177 20.664 79 50.456z"/></g><path id="XMLID_1407_" d="m158.663 122.045-62.355-108.002c25.82-2.308 51.853 10.161 65.667 34.088 13.814 23.928 11.597 52.707-3.312 73.914z" fill="#e2f1a1"/><path id="XMLID_1406_" d="m168 137.826h158c-13.823-29.792-43.996-50.456-79-50.456s-65.177 20.664-79 50.456z" fill="#e2f1a1"/><path id="XMLID_1403_" d="m183.607 122.045 62.355-108.002c-25.82-2.308-51.853 10.161-65.667 34.088-13.814 23.928-11.597 52.707 3.312 73.914z" fill="#e2f1a1"/><circle id="XMLID_1310_" cx="168" cy="173.293" fill="#ffe6c0" r="23.818"/><circle id="XMLID_1257_" cx="144.182" cy="132.082" fill="#ffe6c0" r="23.818"/><circle id="XMLID_1256_" cx="191.818" cy="132.082" fill="#ffcb7c" r="23.818"/><path id="XMLID_235_" d="m495.77 482.513c-9.466 7.539-22.696 7.551-32.184.023l-.135-.107c-2.967-2.354-6.144-4.283-9.452-5.805v-32.448h48c5.523 0 10-4.477 10-10s-4.477-10-10-10h-48v-15c0-10.477 8.523-19 19-19 5.266 0 10.163 2.105 13.789 5.929 3.8 4.007 10.131 4.175 14.137.374 4.007-3.8 4.174-10.13.374-14.137-7.333-7.731-17.647-12.165-28.3-12.165-21.505 0-39 17.495-39 39v15h-81.667v-15c0-10.477 8.523-19 19-19 5.269 0 10.167 2.107 13.793 5.934 3.8 4.008 10.129 4.178 14.137.379s4.178-10.128.379-14.137c-7.333-7.738-17.652-12.176-28.31-12.176-21.505 0-39 17.495-39 39v15h-187.851c-1.209-23.428-.718-47.035 1.477-70.311.519-5.499-3.518-10.376-9.016-10.895-5.497-.524-10.377 3.518-10.895 9.016-2.255 23.898-2.786 48.131-1.595 72.189h-41.854c-.423-81.214 19.445-160.337 57.893-231.25 5.095 7.12 12.877 12.185 21.854 13.704-7.532 18.055-14.036 36.6-19.379 55.342-1.514 5.311 1.564 10.844 6.875 12.358.916.261 1.838.386 2.746.386 4.354 0 8.359-2.866 9.612-7.261 6.382-22.386 14.492-44.478 24.088-65.735 6.381-4.119 11.29-10.323 13.759-17.645l72.606 72.606c1.896 1.896 4.448 2.929 7.071 2.929.717 0 1.439-.077 2.155-.235 3.333-.736 6.062-3.121 7.235-6.327 12.951-35.371 4.118-75.427-22.502-102.048-1.089-1.089-2.209-2.139-3.343-3.171h62.733c3.414 0 6.592-1.742 8.429-4.619s2.079-6.493.643-9.59c-15.855-34.172-50.425-56.25-88.072-56.25-9.717 0-19.344 1.482-28.544 4.315l36.166-62.642c1.707-2.957 1.788-6.58.214-9.609-1.573-3.03-4.583-5.047-7.984-5.352-30.435-2.718-59.952 12.607-75.218 39.049-.172.298-.333.6-.501.899-.168-.299-.328-.602-.499-.899-15.264-26.441-44.783-41.769-75.217-39.049-3.4.304-6.411 2.322-7.984 5.352-1.573 3.029-1.493 6.652.214 9.609l37.787 65.448c-11.488-4.653-23.849-7.121-36.434-7.121-37.647 0-72.217 22.078-88.071 56.247-1.437 3.097-1.194 6.712.643 9.59s5.015 4.619 8.429 4.619h62.733c-1.134 1.032-2.254 2.082-3.343 3.171-26.621 26.621-35.454 66.677-22.502 102.048 1.173 3.206 3.901 5.591 7.235 6.327.715.158 1.438.235 2.155.235 2.623 0 5.175-1.033 7.071-2.929l45.671-45.671c-30.919 66.519-46.794 139.006-46.423 213.167h-52.598c-5.523 0-10 4.477-10 10s4.477 10 10 10h62.727.01.037 62.275.01.014 197.262v30.245c-5.397 1.645-10.568 4.311-15.227 8.008l-.183.145c-9.461 7.508-22.677 7.51-32.147-.005l-.176-.139c-16.813-13.341-40.278-13.319-57.104.082-9.465 7.541-22.697 7.552-32.187.02l-.166-.131c-16.786-13.325-40.233-13.322-57.019.006l-.17.135c-9.479 7.527-22.714 7.518-32.219-.055-16.789-13.374-40.257-13.396-57.062-.06l-.183.145c-9.463 7.51-22.681 7.509-32.143 0-4.325-3.433-10.616-2.71-14.049 1.616-3.434 4.326-2.71 10.616 1.616 14.049 16.782 13.321 40.226 13.321 56.999.009l.184-.145c9.479-7.522 22.711-7.511 32.214.059 16.793 13.377 40.266 13.397 57.082.043l.169-.135c9.463-7.515 22.683-7.515 32.157.005l.166.131c16.813 13.345 40.283 13.326 57.109-.078 9.466-7.538 22.697-7.551 32.183-.023l.176.139c8.392 6.659 18.445 9.988 28.502 9.987 10.054 0 20.111-3.33 28.499-9.986l.183-.145c9.479-7.523 22.709-7.511 32.175.027.016.013.031.025.047.038 16.817 13.362 40.283 13.348 57.086-.036 9.466-7.538 22.697-7.55 32.184-.023l.135.107c16.811 13.339 40.278 13.319 57.067-.052 4.32-3.441 5.033-9.732 1.592-14.052-3.444-4.32-9.735-5.032-14.055-1.592zm-347.487-363.627c.007.002.013.005.02.007 5.612 1.758 9.696 7.005 9.696 13.189 0 5.046-2.727 9.456-6.777 11.868-.207.119-.416.234-.62.357-1.92 1.013-4.103 1.593-6.421 1.593-7.619 0-13.817-6.198-13.817-13.817s6.198-13.818 13.817-13.818c1.429-.001 2.806.217 4.102.621zm57.292 14.393c-.011.098-.015.194-.023.291-.745 6.921-6.618 12.329-13.734 12.329-2.318 0-4.5-.58-6.421-1.593-.204-.123-.413-.238-.62-.357-4.05-2.412-6.777-6.822-6.777-11.868 0-7.619 6.199-13.818 13.818-13.818s13.817 6.199 13.817 13.818c0 .405-.026.803-.06 1.198zm-51.393 40.014c0-5.046 2.727-9.456 6.777-11.868.207-.119.416-.234.62-.357 1.92-1.013 4.103-1.593 6.421-1.593s4.5.58 6.421 1.593c.204.123.413.238.62.357 4.05 2.412 6.777 6.822 6.777 11.868 0 7.619-6.199 13.818-13.818 13.818s-13.818-6.198-13.818-13.818zm120.134 56.766-67.618-67.618c6.855-3.374 12.409-9 15.688-15.91 11.283 3.755 21.557 10.084 30.082 18.609 17.169 17.169 25.018 41.38 21.848 64.919zm34.037-102.233h-78.862c-1.432-.49-2.876-.952-4.334-1.376-1.431-8.497-6.039-15.923-12.558-21.018 10.577-5.306 22.239-8.062 34.401-8.062 24.281 0 46.951 11.57 61.353 30.456zm-119.397-74.695c8.503-14.727 22.935-24.832 39.151-28.162l-42.67 73.907c-.629.121-1.253.255-1.87.41-1.534-5.133-2.353-10.409-2.454-15.692.01-.708.012-1.416.003-2.124.167-9.814 2.778-19.571 7.84-28.339zm-35.641 0c4.972 8.611 7.556 18.237 7.79 27.915-.018.98-.02 1.961-.001 2.942-.148 5.795-1.126 11.575-2.974 17.132l-43.966-76.15c16.215 3.331 30.649 13.435 39.151 28.161zm-125.668 74.695c14.402-18.886 37.072-30.456 61.353-30.456 12.007 0 23.757 2.824 34.351 8.101-6.493 5.094-11.081 12.504-12.509 20.979-1.458.424-2.901.885-4.333 1.376zm34.037 102.233c-3.17-23.538 4.679-47.75 21.848-64.918 8.524-8.525 18.799-14.853 30.082-18.609 3.279 6.909 8.832 12.536 15.688 15.91zm344.7 252.422c-9.481 7.552-22.727 7.553-32.209.001-.012-.01-.025-.02-.037-.029-6.522-5.185-14.051-8.347-21.804-9.505v-28.773h81.666v28.282c-9.762.204-19.474 3.54-27.616 10.024z"/><path id="XMLID_1505_" d="m142.26 298.513c-2.63 0-5.21 1.06-7.07 2.92-1.86 1.87-2.93 4.44-2.93 7.08 0 2.63 1.07 5.2 2.93 7.07 1.86 1.86 4.44 2.93 7.07 2.93s5.21-1.07 7.07-2.93c1.86-1.87 2.93-4.44 2.93-7.07 0-2.64-1.07-5.22-2.93-7.08s-4.44-2.92-7.07-2.92z"/></svg>